<svg width="20" height="22" viewBox="0 0 20 22" fill="none" xmlns="http://www.w3.org/2000/svg">
<path d="M13.6226 4.43465L16.4787 7.29085M1 20.0866L1.04792 19.7512C1.21747 18.5643 1.30226 17.9708 1.4951 17.4168C1.66623 16.9251 1.89999 16.4575 2.19064 16.0257C2.51817 15.539 2.94208 15.1151 3.78987 14.2673L15.5522 2.5049C16.341 1.71618 17.6197 1.71618 18.4085 2.5049C19.1972 3.29362 19.1972 4.57239 18.4085 5.36111L6.43025 17.3393C5.66112 18.1085 5.27656 18.493 4.83853 18.7988C4.44973 19.0702 4.0304 19.2951 3.58916 19.4688C3.09206 19.6645 2.55891 19.7721 1.49272 19.9872L1 20.0866Z" stroke="#36A4A4" stroke-width="2" stroke-linecap="round" stroke-linejoin="round"/>
</svg>
